<?xml version="1.0" encoding="UTF-8"?>
<svg version="1.1" xmlns="http://www.w3.org/2000/svg" width="933" height="342">
<path d="M0 0 C1.13405273 0.27408691 1.13405273 0.27408691 2.29101562 0.55371094 C21.01272027 5.16971018 39.5992512 13.29833215 55 25 C55.85207031 25.64453125 56.70414063 26.2890625 57.58203125 26.953125 C85.97556351 49.10967552 105.19122824 77.28573637 115 112 C115.33644531 113.17175781 115.67289062 114.34351562 116.01953125 115.55078125 C117.40383546 121.13573273 118.06061256 126.43223724 118.37109375 132.16796875 C118.43643311 133.28010742 118.50177246 134.39224609 118.5690918 135.53808594 C118.68733195 137.75991578 118.77475602 139.98365668 118.82739258 142.20800781 C119.09416247 147.53012932 119.37315799 151.03345326 123.26953125 154.875 C124.50760368 155.92309945 125.7508262 156.96515672 127 158 C136.14975335 168.72301411 143.53090761 180.20705225 148.3125 193.5 C148.65812988 194.4585791 148.65812988 194.4585791 149.01074219 195.43652344 C152.90559484 206.97237923 154.56281739 218.41091407 154.5 230.5625 C154.49427979 231.86590332 154.48855957 233.16930664 154.48266602 234.51220703 C153.95365228 263.46368627 142.07123199 289.2105787 121.47998047 309.49755859 C109.56237646 320.6851294 95.54279157 328.95520504 80 334 C79.36384766 334.21027832 78.72769531 334.42055664 78.07226562 334.63720703 C51.68455285 342.927675 21.48593542 339.34539412 -3 327 C-9.13510527 323.69002197 -15.11366366 320.08314399 -19.94921875 315.015625 C-26.63680455 308.14580111 -31.49023445 306.13692678 -41.1875 306 C-44.18785997 305.99491054 -47.18725124 306.01145453 -50.1875 306.03662109 C-76.48001557 305.69427063 -105.34067432 293.69719565 -126 278 C-126.85207031 277.35546875 -127.70414063 276.7109375 -128.58203125 276.046875 C-161.42277595 250.41999588 -183.69284893 214.89645359 -189.51904297 173.29370117 C-191.76456749 155.02199356 -191.62457573 133.86806609 -187 116 C-186.81727539 115.24396484 -186.63455078 114.48792969 -186.44628906 113.70898438 C-181.83028982 94.98727973 -173.70166785 76.4007488 -162 61 C-161.35546875 60.14792969 -160.7109375 59.29585937 -160.046875 58.41796875 C-134.41999588 25.57722405 -98.89645359 3.30715107 -57.29370117 -2.51904297 C-39.02199356 -4.76456749 -17.86806609 -4.62457573 0 0 Z M-135.94921875 63.12890625 C-152.86403007 82.0203191 -165.27687789 107.76362414 -168 133 C-168.11085937 133.99644531 -168.22171875 134.99289063 -168.3359375 136.01953125 C-170.8172017 161.60337697 -167.24231805 185.91913694 -156 209 C-155.69046387 209.64356445 -155.38092773 210.28712891 -155.06201172 210.95019531 C-138.94065464 244.06297751 -110.07912428 266.94406899 -75.84960938 279.36914062 C-66.38184722 282.59837735 -56.98856104 284.13734271 -47 284 C-47.22139648 283.48840332 -47.44279297 282.97680664 -47.67089844 282.44970703 C-60.44921192 252.60483231 -64.26188654 221.54388801 -52.2644043 190.61254883 C-48.78144665 182.07154872 -44.65597238 174.32544544 -39 167 C-38.59410645 166.47212891 -38.18821289 165.94425781 -37.77001953 165.40039062 C-24.34013958 148.1543423 -6.79557241 135.74971407 14 129 C14.63615234 128.78972168 15.27230469 128.57944336 15.92773438 128.36279297 C40.63420041 120.60053759 69.56022373 123.22184938 92.91796875 134.08203125 C94.92576757 135.13447629 94.92576757 135.13447629 97 135 C94.82777856 109.60748042 83.70973554 85.19548132 67 66 C66.25105469 65.11441406 65.50210938 64.22882813 64.73046875 63.31640625 C44.37016012 39.88957128 14.21147714 22.12114771 -17 19 C-17.99257812 18.89042969 -18.98515625 18.78085937 -20.0078125 18.66796875 C-64.42080031 14.31943861 -105.68094701 30.47826802 -135.94921875 63.12890625 Z " fill="#FFFFFF" transform="translate(191,4)"/>
<path d="M0 0 C66.81539889 0 66.81539889 0 86.6875 18.0625 C97.6388467 29.40219233 100.42261064 43.46979971 100.36352539 58.63208008 C100.08523338 73.47803124 94.87541883 85.0305859 84.6875 95.8125 C61.86828071 117.29166447 29.07980068 112 0 112 C0 75.04 0 38.08 0 0 Z M20 19 C20 43.42 20 67.84 20 93 C47.15056261 94.17596108 47.15056261 94.17596108 70.03515625 81.99609375 C77.57399057 73.04872988 79.90589577 63.38188645 79.37109375 51.8671875 C78.25936432 40.28179658 72.87118938 32.76516292 64.05859375 25.37109375 C51.22131341 16.39303756 34.57818211 19 20 19 Z " fill="#FFFFFF" transform="translate(436,101)"/>
<path d="M0 0 C5.25969293 4.90325093 8.66190515 10.22454842 11.30078125 16.890625 C11.84798828 18.22480469 11.84798828 18.22480469 12.40625 19.5859375 C15.72236541 31.83673942 13.99817241 45.31580149 7.98046875 56.30078125 C1.93341254 66.19746613 -7.41137338 73.13978551 -18.58276367 76.44848633 C-29.36627189 78.70121829 -43.00526572 78.22811886 -52.69921875 72.890625 C-53.48167969 72.46652344 -54.26414062 72.04242188 -55.0703125 71.60546875 C-63.50952754 66.49639927 -70.09958699 59.1035439 -73.69921875 49.890625 C-74.055 49.02179688 -74.41078125 48.15296875 -74.77734375 47.2578125 C-77.73301142 36.46211108 -77.04471226 22.74898064 -71.69921875 12.890625 C-71.27511719 12.106875 -70.85101562 11.323125 -70.4140625 10.515625 C-63.93723294 -0.16482932 -54.48286199 -6.92651954 -42.4140625 -9.92578125 C-26.87548137 -12.71116389 -12.48847248 -9.75944304 0 0 Z M-49.96875 14.8984375 C-55.83212937 21.64860337 -56.33526931 28.59903551 -56.08984375 37.35546875 C-55.57932438 41.97566902 -54.38254494 45.14144798 -51.69921875 48.890625 C-51.14234375 49.7775 -50.58546875 50.664375 -50.01171875 51.578125 C-44.9278922 56.66195155 -38.64562929 59.5811026 -31.51171875 60.140625 C-23.80701433 59.63539848 -18.02750198 57.26833462 -12.4296875 51.8828125 C-6.56630813 45.13264663 -6.06316819 38.18221449 -6.30859375 29.42578125 C-6.81911312 24.80558098 -8.01589256 21.63980202 -10.69921875 17.890625 C-11.25609375 17.00375 -11.81296875 16.116875 -12.38671875 15.203125 C-17.4705453 10.11929845 -23.75280821 7.2001474 -30.88671875 6.640625 C-38.59142317 7.14585152 -44.37093552 9.51291538 -49.96875 14.8984375 Z " fill="#FFFFFF" transform="translate(875.69921875,137.109375)"/>
<path d="M0 0 C6.93 0 13.86 0 21 0 C25.92767144 11.37826496 30.05842814 23.02289538 34.25 34.6875 C35.68951331 38.69256697 37.13269995 42.69628213 38.578125 46.69921875 C38.90725891 47.6188591 39.23639282 48.53849945 39.57550049 49.48600769 C39.87961853 50.32811295 40.18373657 51.1702182 40.49707031 52.0378418 C40.76400696 52.781082 41.0309436 53.5243222 41.30596924 54.29008484 C41.87116262 56.0009159 41.87116262 56.0009159 43 57 C45.67073323 49.84722488 48.33983512 42.69384257 51.0078125 35.54003906 C51.91531573 33.10728219 52.82319008 30.67466372 53.73144531 28.2421875 C55.03809008 24.74255249 56.34339236 21.24241929 57.6484375 17.7421875 C58.05371674 16.65759247 58.45899597 15.57299744 58.8765564 14.45553589 C59.44692123 12.92462814 59.44692123 12.92462814 60.02880859 11.36279297 C60.36190033 10.47010712 60.69499207 9.57742126 61.03817749 8.65768433 C62.07613402 5.78962833 63.03547426 2.89357721 64 0 C71.26 0 78.52 0 86 0 C81.47553147 12.24309802 76.67362356 24.35019522 71.75 36.4375 C70.2438235 40.14283619 68.73900256 43.8487221 67.234375 47.5546875 C66.86807983 48.45637161 66.50178467 49.35805573 66.12438965 50.2870636 C63.96630731 55.60369702 61.823227 60.92592121 59.703125 66.2578125 C59.23680664 67.43029541 58.77048828 68.60277832 58.29003906 69.81079102 C57.4512759 71.92500119 56.61457328 74.04003041 55.78027344 76.15600586 C55.4196582 77.06487549 55.05904297 77.97374512 54.6875 78.91015625 C54.38199219 79.68496338 54.07648437 80.45977051 53.76171875 81.25805664 C53 83 53 83 52 84 C50.58429877 84.08651611 49.164405 84.10704904 47.74609375 84.09765625 C46.89208984 84.09443359 46.03808594 84.09121094 45.15820312 84.08789062 C44.26037109 84.07951172 43.36253906 84.07113281 42.4375 84.0625 C41.53580078 84.05798828 40.63410156 84.05347656 39.70507812 84.04882812 C37.46998686 84.03700225 35.23502563 84.0205222 33 84 C28.24107539 72.38487224 23.48697827 60.76778488 18.73974609 49.14787292 C16.34965364 43.29848326 13.95505191 37.45097578 11.55574036 31.60536194 C10.15499269 28.18976963 8.75855931 24.772426 7.36331177 21.35458374 C6.70555779 19.74593504 6.0459563 18.13804049 5.38449097 16.53091431 C4.46763933 14.30249783 3.5572628 12.0715432 2.6484375 9.83984375 C2.37744736 9.18561432 2.10645721 8.53138489 1.82725525 7.85733032 C0.69423595 5.05765844 0 3.05483787 0 0 Z " fill="#FFFFFF" transform="translate(659,129)"/>
<path d="M0 0 C0 7.26 0 14.52 0 22 C-1.835625 22.2475 -3.67125 22.495 -5.5625 22.75 C-13.45458484 24.09471481 -18.64924058 26.6745482 -23.71484375 33.0234375 C-30.58767166 43.59380504 -29.22193571 58.02037202 -29.5625 70.125 C-29.60580156 71.57292622 -29.64941906 73.02084302 -29.69335938 74.46875 C-29.79979344 77.97906603 -29.89976037 81.48948004 -30 85 C-36.6 85 -43.2 85 -50 85 C-50 57.61 -50 30.22 -50 2 C-43.4 2 -36.8 2 -30 2 C-29.67 6.95 -29.34 11.9 -29 17 C-28.195625 15.63875 -27.39125 14.2775 -26.5625 12.875 C-22.04484493 6.15670732 -16.63026799 2.32117284 -8.6875 0.625 C-5.68742038 0.1322333 -3.07113063 0 0 0 Z " fill="#FFFFFF" transform="translate(606,127)"/>
<path d="M0 0 C6.6 0 13.2 0 20 0 C20 27.72 20 55.44 20 84 C13.4 84 6.8 84 0 84 C0 56.28 0 28.56 0 0 Z " fill="#FFFFFF" transform="translate(761,128)"/>
<path d="M0 0 C6.6 0 13.2 0 20 0 C20 27.72 20 55.44 20 84 C13.4 84 6.8 84 0 84 C0 56.28 0 28.56 0 0 Z " fill="#FFFFFF" transform="translate(623,128)"/>
<path d="M0 0 C6.93 0 13.86 0 21 0 C21 5.94 21 11.88 21 18 C14.07 18 7.14 18 0 18 C0 12.06 0 6.12 0 0 Z " fill="#FFFFFF" transform="translate(760,98)"/>
<path d="M0 0 C6.93 0 13.86 0 21 0 C21 5.94 21 11.88 21 18 C14.07 18 7.14 18 0 18 C0 12.06 0 6.12 0 0 Z " fill="#FFFFFF" transform="translate(622,98)"/>
</svg>
